<?xml version="1.0" encoding="utf-8"?>
<!-- Generator: Adobe Illustrator 23.0.0, SVG Export Plug-In . SVG Version: 6.00 Build 0)  -->
<svg version="1.1" id="Layer_1" xmlns="http://www.w3.org/2000/svg" xmlns:xlink="http://www.w3.org/1999/xlink" x="0px" y="0px"
	 viewBox="0 0 2500 741" style="enable-background:new 0 0 2500 741;" xml:space="preserve">
<style type="text/css">
	.st0{fill:#FFFFFF;}
</style>
<path class="st0" d="M2484.1,653.5c0,39.2-31.8,71-71,71c0,0,0,0-0.1,0H87.6c-39.2,0-71.1-31.7-71.1-71V87.6
	c0.1-39.3,31.9-71,71.1-71.1H2413c39.2,0,71.1,31.8,71.1,71c0,0,0,0,0,0L2484.1,653.5L2484.1,653.5z"/>
<path d="M2413,741H87.6C39.3,741,0.1,701.8,0,653.5V87.6C0.1,39.2,39.3,0.1,87.6,0H2413c48.4,0.1,87.6,39.2,87.6,87.6v565.9
	C2500.7,701.7,2461.3,741,2413,741L2413,741z"/>
<path d="M2484.1,653.5c0,39.2-31.8,71-71,71c0,0,0,0-0.1,0H87.6c-39.2,0-71.1-31.7-71.1-71V87.6c0.1-39.3,31.9-71,71.1-71.1H2413
	c39.2,0,71.1,31.8,71.1,71c0,0,0,0,0,0L2484.1,653.5L2484.1,653.5z"/>
<path class="st0" d="M558.4,366.6c-0.5-59.7,48.9-88.8,51.2-90.1c-28-40.8-71.4-46.4-86.7-46.8c-36.5-3.8-71.8,21.8-90.4,21.8
	c-18.9,0-47.5-21.4-78.4-20.8c-39.7,0.6-76.8,23.6-97.1,59.2c-42,72.7-10.7,179.5,29.6,238.3c20.1,28.8,43.6,60.9,74.4,59.8
	c30.1-1.2,41.4-19.2,77.7-19.2c36,0,46.6,19.2,78,18.5c32.3-0.5,52.7-28.9,72.1-57.9c23.3-33,32.6-65.5,33-67.1
	C621,461.8,559,438.2,558.4,366.6L558.4,366.6z M499.1,191c16.2-20.3,27.3-47.8,24.2-75.8c-23.4,1-52.8,16.2-69.6,36
	c-14.9,17.5-28.3,46.1-24.8,73C455.1,226.2,482.2,210.9,499.1,191L499.1,191z"/>
<path d="M2413,0H1167.5L1655.3,741H2413c48.4,0,87.6-39.2,87.6-87.5V87.6C2500.6,39.2,2461.4,0.1,2413,0z"/>
<g>
	<path class="st0" d="M994.6,583.8h-42.1l-23.1-72.4h-80.1l-22,72.4h-41l79.4-246.6h49L994.6,583.8L994.6,583.8z M922.5,480.9
		l-20.9-64.4c-2.2-6.6-6.4-22.1-12.4-46.5h-0.7c-2.4,10.5-6.4,26-11.7,46.5l-20.5,64.4H922.5z M1198.4,492.7
		c0,30.2-8.2,54.1-24.6,71.7c-14.7,15.6-33,23.4-54.8,23.4c-23.6,0-40.5-8.4-50.8-25.2v93.3h-39.5V464.4c0-19-0.5-38.5-1.5-58.4
		h34.8l2.2,28.2h0.7c13.2-21.2,33.2-31.9,60-31.9c21,0,38.5,8.3,52.5,24.9C1191.4,443.8,1198.4,465.6,1198.4,492.7L1198.4,492.7z
		 M1158.2,494.1c0-17.3-3.9-31.6-11.7-42.8c-8.5-11.7-20-17.5-34.4-17.5c-9.7,0-18.6,3.3-26.5,9.7c-7.9,6.5-13.1,15-15.5,25.4
		c-1.1,3.9-1.7,8-1.8,12v29.7c0,12.9,4,23.8,11.9,32.8c7.9,8.9,18.2,13.4,30.9,13.4c14.9,0,26.5-5.8,34.8-17.2
		C1154,528,1158.2,512.9,1158.2,494.1z M1403,492.7c0,30.2-8.2,54.1-24.6,71.7c-14.7,15.6-33,23.4-54.8,23.4
		c-23.6,0-40.5-8.4-50.8-25.2v93.3h-39.5V464.4c0-19-0.5-38.5-1.5-58.4h34.8l2.2,28.2h0.7c13.2-21.2,33.2-31.9,60-31.9
		c21,0,38.5,8.3,52.5,24.9C1395.9,443.8,1403,465.6,1403,492.7L1403,492.7z M1362.7,494.1c0-17.3-3.9-31.6-11.7-42.8
		c-8.5-11.7-20-17.5-34.4-17.5c-9.7,0-18.6,3.3-26.6,9.7c-7.9,6.5-13.1,15-15.5,25.4c-1.2,4.9-1.9,8.9-1.9,12v29.7
		c0,12.9,4,23.8,11.9,32.8c7.9,8.9,18.2,13.4,31,13.4c14.9,0,26.5-5.8,34.8-17.2C1358.6,528,1362.7,512.9,1362.7,494.1z
		 M1631.7,514.6c0,21-7.3,38.1-21.9,51.2c-16,14.4-38.5,21.6-67.2,21.6c-26.5,0-47.8-5.1-63.9-15.4l9.1-32.9
		c17.3,10.3,36.4,15.4,57.1,15.4c14.9,0,26.5-3.4,34.8-10.1c8.3-6.7,12.5-15.7,12.5-26.9c0-10-3.5-18.4-10.3-25.3
		c-6.8-6.8-18.1-13.2-34-19c-43.2-16.1-64.8-39.7-64.8-70.6c0-20.2,7.6-36.8,22.9-49.7c15.2-12.9,35.4-19.4,60.6-19.4
		c22.4,0,41.1,3.9,56,11.7l-9.9,32.2c-14-7.6-29.7-11.3-47.4-11.3c-13.9,0-24.9,3.4-32.7,10.2c-6.6,6.1-9.9,13.5-9.9,22.3
		c0,9.7,3.8,17.8,11.4,24.1c6.6,5.8,18.5,12.2,35.8,19c21.2,8.6,36.8,18.5,46.8,30C1626.7,483.3,1631.7,497.6,1631.7,514.6
		L1631.7,514.6z M1762.7,435.6h-43.6v86.3c0,22,7.7,32.9,23.1,32.9c7.1,0,12.9-0.6,17.6-1.8l1.1,30c-7.8,2.9-18,4.4-30.7,4.4
		c-15.6,0-27.8-4.8-36.6-14.3c-8.8-9.5-13.2-25.5-13.2-47.9v-89.6h-25.9v-29.6h25.9v-32.6l38.8-11.7v44.3h43.6L1762.7,435.6
		L1762.7,435.6z M1958.8,493.4c0,27.3-7.8,49.8-23.4,67.3c-16.3,18.1-38,27.1-65.1,27.1c-26.1,0-46.9-8.7-62.4-25.9
		c-15.5-17.3-23.2-39.2-23.2-65.5c0-27.6,8-50.1,24-67.7c16-17.6,37.5-26.3,64.6-26.3c26.1,0,47.1,8.7,62.9,26
		C1951.2,445.1,1958.8,466.8,1958.8,493.4L1958.8,493.4z M1917.8,494.3c0-16.3-3.5-30.3-10.6-41.9c-8.3-14.1-20.1-21.2-35.5-21.2
		c-15.8,0-28,7.1-36.2,21.2c-7.1,11.7-10.6,25.9-10.6,42.7c0,16.3,3.5,30.3,10.6,42c8.5,14.1,20.5,21.2,35.9,21.2
		c15.1,0,26.9-7.2,35.5-21.5C1914.2,524.7,1917.8,510.6,1917.8,494.3L1917.8,494.3z M2087.3,440.7c-4.1-0.7-8.3-1.1-12.5-1.1
		c-13.9,0-24.6,5.2-32.2,15.7c-6.6,9.3-9.9,21-9.9,35.1v93.3h-39.5V461.9c0-18.7-0.3-37.3-1.1-56h34.4l1.4,34h1.1
		c4.2-11.7,10.7-21.1,19.8-28.2c8.2-6.2,18.3-9.5,28.6-9.5c3.7,0,6.9,0.3,9.9,0.7L2087.3,440.7L2087.3,440.7z M2264,486.4
		c0.1,6-0.4,12-1.4,17.9H2144c0.4,17.6,6.2,31,17.2,40.3c10,8.3,22.9,12.4,38.8,12.4c17.6,0,33.6-2.8,48-8.4l6.2,27.4
		c-16.8,7.3-36.7,11-59.6,11c-27.6,0-49.2-8.1-65-24.3c-15.7-16.2-23.6-38-23.6-65.3c0-26.8,7.3-49.1,22-66.9
		c15.3-19,36.1-28.5,62.2-28.5c25.6,0,45,9.5,58.2,28.5C2258.7,445.6,2264,464.3,2264,486.4L2264,486.4z M2226.3,476.2
		c0.3-11.7-2.3-21.8-7.7-30.4c-6.8-11-17.4-16.5-31.5-16.5c-12.9,0-23.4,5.4-31.5,16.1c-6.6,8.5-10.5,18.8-11.7,30.7L2226.3,476.2
		L2226.3,476.2z"/>
</g>
<g>
	<path class="st0" d="M837.9,250c-11,0-20.5-0.5-28.4-1.4V129.3c11.1-1.7,22.3-2.6,33.5-2.5c45.3,0,66.2,22.3,66.2,58.6
		C909.1,227.4,884.5,250,837.9,250z M844.6,142.1c-6.1,0-11.3,0.4-15.6,1.3V234c2.3,0.4,6.8,0.5,13.1,0.5
		c29.7,0,46.6-16.9,46.6-48.5C888.6,157.8,873.3,142.1,844.6,142.1z M974.2,250.9c-25.5,0-42.1-19.1-42.1-45
		c0-27,16.9-46.2,43.5-46.2c25.2,0,42.1,18.2,42.1,44.8C1017.7,231.8,1000.3,250.9,974.2,250.9L974.2,250.9z M974.9,173.9
		c-14,0-23,13.1-23,31.5c0,18,9.2,31.1,22.8,31.1c13.7,0,22.8-14,22.8-31.5C997.6,187.2,988.6,173.9,974.9,173.9L974.9,173.9z
		 M1163.3,161.5l-27.3,87.4h-17.8l-11.3-37.9c-2.8-9.3-5.2-18.7-7-28.2h-0.4c-1.4,9.5-4.1,19.1-7,28.2l-12,37.9h-18l-25.7-87.4h20
		l9.9,41.5c2.3,9.9,4.3,19.2,5.9,28.1h0.4c1.4-7.4,3.8-16.5,7.2-27.9l12.4-41.7h15.8l11.9,40.8c2.9,9.9,5.2,19.6,7,28.8h0.5
		c1.3-9,3.2-18.5,5.9-28.8l10.6-40.8L1163.3,161.5L1163.3,161.5z M1264,248.9h-19.4v-50.2c0-15.5-5.9-23.2-17.6-23.2
		c-11.5,0-19.4,9.9-19.4,21.4v52h-19.4v-62.4c0-7.7-0.2-16-0.7-25h17.1l0.9,13.5h0.5c5.2-9.3,15.8-15.3,27.7-15.3
		c18.3,0,30.4,14,30.4,36.9L1264,248.9L1264,248.9z M1317.5,248.9h-19.4V121.4h19.4V248.9z M1388.4,250.9c-25.5,0-42.1-19.1-42.1-45
		c0-27,16.9-46.2,43.5-46.2c25.2,0,42.1,18.2,42.1,44.8C1431.9,231.8,1414.4,250.9,1388.4,250.9L1388.4,250.9z M1389.1,173.9
		c-14,0-23,13.1-23,31.5c0,18,9.2,31.1,22.8,31.1c13.7,0,22.8-14,22.8-31.5C1411.7,187.2,1402.8,173.9,1389.1,173.9L1389.1,173.9z
		 M1508.5,248.9l-1.4-10.1h-0.5c-5.9,8.1-14.6,12-25.6,12c-15.7,0-26.8-11-26.8-25.7c0-21.6,18.7-32.7,51.1-32.7v-1.6
		c0-11.5-6.1-17.3-18.1-17.3c-8.6,0-16.2,2.2-22.8,6.5l-3.9-12.8c8.1-5,18.2-7.6,30-7.6c22.8,0,34.4,12,34.4,36.1v32.2
		c0,8.8,0.4,15.7,1.3,20.9L1508.5,248.9L1508.5,248.9z M1505.8,205.4c-21.6,0-32.4,5.2-32.4,17.6c0,9.2,5.6,13.7,13.3,13.7
		c9.9,0,19.1-7.5,19.1-17.8V205.4z M1619,248.9l-0.9-14h-0.5c-5.6,10.6-15,16-28.1,16c-21.1,0-36.7-18.5-36.7-44.6
		c0-27.3,16.2-46.6,38.3-46.6c11.7,0,20,3.9,24.6,11.9h0.4v-50.2h19.4v103.9c0,8.4,0.2,16.4,0.7,23.5L1619,248.9L1619,248.9z
		 M1616.2,197.5c0-12.2-8.1-22.7-20.5-22.7c-14.4,0-23.2,12.8-23.2,30.7c0,17.6,9.1,29.7,22.8,29.7c12.2,0,20.9-10.6,20.9-23.2
		L1616.2,197.5L1616.2,197.5z M1758.9,250.9c-25.5,0-42.1-19.1-42.1-45c0-27,16.9-46.2,43.5-46.2c25.2,0,42.1,18.2,42.1,44.8
		C1802.4,231.8,1785,250.9,1758.9,250.9L1758.9,250.9z M1759.6,173.9c-14,0-23,13.1-23,31.5c0,18,9.2,31.1,22.8,31.1
		c13.7,0,22.8-14,22.8-31.5C1782.3,187.2,1773.3,173.9,1759.6,173.9L1759.6,173.9z M1906.9,248.9h-19.4v-50.2
		c0-15.5-5.9-23.2-17.6-23.2c-11.5,0-19.4,9.9-19.4,21.4v52h-19.4v-62.4c0-7.7-0.2-16-0.7-25h17.1l0.9,13.5h0.5
		c5.2-9.3,15.8-15.3,27.7-15.3c18.3,0,30.4,14,30.4,36.9V248.9z M2037.5,176.1h-21.4v42.4c0,10.8,3.7,16.2,11.3,16.2
		c3.4,0,6.3-0.4,8.6-0.9l0.5,14.7c-3.8,1.4-8.8,2.2-15.1,2.2c-15.3,0-24.5-8.4-24.5-30.6v-44.1h-12.8v-14.6h12.8v-16l19.1-5.8v21.8
		h21.4L2037.5,176.1L2037.5,176.1z M2140.4,248.9H2121v-49.8c0-15.6-5.9-23.5-17.6-23.5c-10.1,0-19.4,6.8-19.4,20.7v52.7h-19.4
		V121.4h19.4v52.5h0.4c6.1-9.5,15-14.2,26.3-14.2c18.5,0,29.8,14.4,29.8,37.2L2140.4,248.9L2140.4,248.9z M2245.7,209.9h-58.3
		c0.4,16.5,11.3,25.9,27.5,25.9c8.6,0,16.6-1.4,23.6-4.1l3,13.5c-8.3,3.6-18,5.4-29.3,5.4c-27.3,0-43.5-17.3-43.5-44
		c0-26.8,16.6-46.9,41.3-46.9c22.3,0,36.3,16.5,36.3,41.5C2246.5,204.1,2246.3,207,2245.7,209.9L2245.7,209.9z M2227.9,196.1
		c0-13.5-6.8-23-19.2-23c-11.2,0-20,9.7-21.2,23H2227.9L2227.9,196.1z"/>
</g>
</svg>
